<?xml version="1.0"?>
<svg xmlns="http://www.w3.org/2000/svg" xmlns:xlink="http://www.w3.org/1999/xlink" xmlns:svgjs="http://svgjs.com/svgjs" version="1.1" width="512" height="512" x="0" y="0" viewBox="0 0 314.652 314.652" style="enable-background:new 0 0 512 512" xml:space="preserve" class=""><g>
<g xmlns="http://www.w3.org/2000/svg">
	<path d="M157.326,0C70.576,0,0,70.576,0,157.326s70.576,157.326,157.326,157.326s157.326-70.576,157.326-157.326   S244.076,0,157.326,0z M157.326,296.652C80.501,296.652,18,234.15,18,157.326S80.501,18,157.326,18s139.326,62.502,139.326,139.326   S234.151,296.652,157.326,296.652z" fill="#ffffff" data-original="#000000" style="" class=""/>
	<path d="M193.764,71.952H172.43c-17.461,0-31.667,14.206-31.667,31.667v24h-19.875c-4.971,0-9,4.029-9,9s4.029,9,9,9h19.875v83.333   c0,4.971,4.029,9,9,9s9-4.029,9-9v-83.333h30.75c4.971,0,9-4.029,9-9s-4.029-9-9-9h-30.75v-24c0-7.536,6.131-13.667,13.667-13.667   h21.333c4.971,0,9-4.029,9-9S198.734,71.952,193.764,71.952z" fill="#ffffff" data-original="#000000" style="" class=""/>
</g>
<g xmlns="http://www.w3.org/2000/svg">
</g>
<g xmlns="http://www.w3.org/2000/svg">
</g>
<g xmlns="http://www.w3.org/2000/svg">
</g>
<g xmlns="http://www.w3.org/2000/svg">
</g>
<g xmlns="http://www.w3.org/2000/svg">
</g>
<g xmlns="http://www.w3.org/2000/svg">
</g>
<g xmlns="http://www.w3.org/2000/svg">
</g>
<g xmlns="http://www.w3.org/2000/svg">
</g>
<g xmlns="http://www.w3.org/2000/svg">
</g>
<g xmlns="http://www.w3.org/2000/svg">
</g>
<g xmlns="http://www.w3.org/2000/svg">
</g>
<g xmlns="http://www.w3.org/2000/svg">
</g>
<g xmlns="http://www.w3.org/2000/svg">
</g>
<g xmlns="http://www.w3.org/2000/svg">
</g>
<g xmlns="http://www.w3.org/2000/svg">
</g>
</g></svg>
